<svg width="14" height="14" viewBox="0 0 14 14" fill="none" xmlns="http://www.w3.org/2000/svg">
<path d="M12.8334 7.99999C13.3857 7.99999 13.8334 7.55227 13.8334 6.99999C13.8334 6.4477 13.3857 5.99999 12.8334 5.99999V7.99999ZM1.16675 6.99999L0.459641 6.29288C0.0691171 6.68341 0.0691171 7.31657 0.459641 7.7071L1.16675 6.99999ZM6.29297 13.5404C6.6835 13.931 7.31666 13.931 7.70719 13.5404C8.09771 13.1499 8.09771 12.5167 7.70719 12.1262L6.29297 13.5404ZM7.70719 1.87376C8.09771 1.48324 8.09771 0.850074 7.70719 0.45955C7.31666 0.0690255 6.6835 0.0690255 6.29297 0.45955L7.70719 1.87376ZM12.8334 5.99999H1.16675V7.99999H12.8334V5.99999ZM7.70719 12.1262L1.87385 6.29288L0.459641 7.7071L6.29297 13.5404L7.70719 12.1262ZM1.87385 7.7071L7.70719 1.87376L6.29297 0.45955L0.459641 6.29288L1.87385 7.7071Z" fill="#667085"/>
</svg>
