<svg width="20" height="20" viewBox="0 0 20 20" fill="none" xmlns="http://www.w3.org/2000/svg">
<path d="M1.74637 14.811C1.48602 15.0713 1.48602 15.4934 1.74637 15.7538C2.00672 16.0141 2.42883 16.0141 2.68918 15.7538L1.74637 14.811ZM6.51739 11.9256C6.77774 11.6652 6.77774 11.2431 6.51739 10.9828C6.25704 10.7224 5.83493 10.7224 5.57458 10.9828L6.51739 11.9256ZM15.6528 1.84735C15.3925 1.587 14.9703 1.587 14.71 1.84735C14.4496 2.1077 14.4496 2.52981 14.71 2.79016L15.6528 1.84735ZM15.1814 13.5146L15.6528 13.986L15.1814 13.5146ZM4.45694 13.0432C4.1966 12.7829 3.77449 12.7829 3.51414 13.0432C3.25379 13.3036 3.25379 13.7257 3.51414 13.986L4.45694 13.0432ZM14.1668 19C14.535 19 14.8335 18.7015 14.8335 18.3334C14.8335 17.9652 14.535 17.6667 14.1668 17.6667V19ZM5.83347 17.6667C5.46528 17.6667 5.1668 17.9652 5.1668 18.3334C5.1668 18.7015 5.46528 19 5.83347 19V17.6667ZM9.33347 18.3334C9.33347 18.7015 9.63195 19 10.0001 19C10.3683 19 10.6668 18.7015 10.6668 18.3334H9.33347ZM10.6668 15.8334C10.6668 15.4652 10.3683 15.1667 10.0001 15.1667C9.63195 15.1667 9.33347 15.4652 9.33347 15.8334H10.6668ZM13.9168 7.91668C13.9168 10.3099 11.9767 12.25 9.58347 12.25V13.5834C12.7131 13.5834 15.2501 11.0463 15.2501 7.91668H13.9168ZM9.58347 12.25C7.19024 12.25 5.25014 10.3099 5.25014 7.91668H3.9168C3.9168 11.0463 6.45386 13.5834 9.58347 13.5834V12.25ZM5.25014 7.91668C5.25014 5.52345 7.19024 3.58335 9.58347 3.58335V2.25002C6.45386 2.25002 3.9168 4.78707 3.9168 7.91668H5.25014ZM9.58347 3.58335C11.9767 3.58335 13.9168 5.52345 13.9168 7.91668H15.2501C15.2501 4.78707 12.7131 2.25002 9.58347 2.25002V3.58335ZM2.68918 15.7538L6.51739 11.9256L5.57458 10.9828L1.74637 14.811L2.68918 15.7538ZM14.71 2.79016C17.5413 5.62146 17.5413 10.2119 14.71 13.0432L15.6528 13.986C19.0048 10.634 19.0048 5.19935 15.6528 1.84735L14.71 2.79016ZM14.71 13.0432C11.8787 15.8745 7.28825 15.8745 4.45694 13.0432L3.51414 13.986C6.86614 17.338 12.3008 17.338 15.6528 13.986L14.71 13.0432ZM14.1668 17.6667H5.83347V19H14.1668V17.6667ZM10.6668 18.3334V15.8334H9.33347V18.3334H10.6668Z" fill="#667085"/>
</svg>
