<svg width="20" height="20" viewBox="0 0 20 20" fill="none" xmlns="http://www.w3.org/2000/svg">
<path d="M2.03655 5.27863C1.7302 5.07439 1.31628 5.15718 1.11205 5.46353C0.907813 5.76988 0.990595 6.18379 1.29695 6.38803L2.03655 5.27863ZM5.99495 8.7188L6.36475 8.1641L5.99495 8.7188ZM14.0052 8.7188L14.375 9.2735L14.375 9.2735L14.0052 8.7188ZM18.7032 6.38803C19.0096 6.18379 19.0924 5.76988 18.8881 5.46353C18.6839 5.15718 18.27 5.07439 17.9636 5.27863L18.7032 6.38803ZM13.4956 9.02746L13.7623 9.63845L13.4956 9.02746ZM13.1213 9.1408L13.2383 9.79712L13.1213 9.1408ZM6.50458 9.02746L6.23786 9.63845L6.50458 9.02746ZM6.8789 9.1408L6.7619 9.79712L6.8789 9.1408ZM3.03177 16.3942L2.72911 16.9882L3.03177 16.3942ZM1.93923 15.3016L1.34523 15.6043L1.93923 15.3016ZM18.0609 15.3016L18.6549 15.6043L18.0609 15.3016ZM16.9684 16.3942L17.2711 16.9882L16.9684 16.3942ZM16.9684 3.60581L17.2711 3.01181L16.9684 3.60581ZM18.0609 4.69835L18.6549 4.39569L18.0609 4.69835ZM3.03177 3.60581L2.72911 3.01181L3.03177 3.60581ZM1.93923 4.69835L1.34523 4.39569L1.93923 4.69835ZM1.29695 6.38803L5.62515 9.2735L6.36475 8.1641L2.03655 5.27863L1.29695 6.38803ZM14.375 9.2735L18.7032 6.38803L17.9636 5.27863L13.6354 8.1641L14.375 9.2735ZM7.47415 9.83333H12.526V8.5H7.47415V9.83333ZM13.6354 8.16409C13.3666 8.34329 13.2975 8.38652 13.2289 8.41648L13.7623 9.63845C13.9638 9.55048 14.1444 9.42723 14.375 9.2735L13.6354 8.16409ZM12.526 9.83333C12.8032 9.83333 13.0218 9.83571 13.2383 9.79712L13.0043 8.48448C12.9306 8.49762 12.8491 8.5 12.526 8.5V9.83333ZM13.2289 8.41648C13.1569 8.44788 13.0815 8.4707 13.0043 8.48448L13.2383 9.79712C13.4186 9.76498 13.5945 9.71172 13.7623 9.63845L13.2289 8.41648ZM5.62515 9.2735C5.85576 9.42724 6.03633 9.55048 6.23786 9.63845L6.7713 8.41648C6.70268 8.38652 6.63355 8.34329 6.36475 8.1641L5.62515 9.2735ZM7.47415 8.5C7.1511 8.5 7.0696 8.49762 6.99589 8.48448L6.7619 9.79712C6.97838 9.83571 7.19699 9.83333 7.47415 9.83333V8.5ZM6.23786 9.63845C6.40571 9.71172 6.5816 9.76498 6.7619 9.79712L6.99589 8.48448C6.91862 8.4707 6.84323 8.44788 6.7713 8.41648L6.23786 9.63845ZM5.66675 3.99999H14.3334V2.66666H5.66675V3.99999ZM17.6667 7.33333V12.6667H19.0001V7.33333H17.6667ZM14.3334 16H5.66675V17.3333H14.3334V16ZM2.33341 12.6667V7.33333H1.00008V12.6667H2.33341ZM5.66675 16C4.95568 16 4.46248 15.9995 4.07904 15.9681C3.70339 15.9375 3.49218 15.8805 3.33443 15.8002L2.72911 16.9882C3.10615 17.1803 3.51236 17.2596 3.97047 17.2971C4.42079 17.3338 4.97768 17.3333 5.66675 17.3333V16ZM1.00008 12.6667C1.00008 13.3557 0.999563 13.9126 1.03636 14.3629C1.07378 14.8211 1.15312 15.2273 1.34523 15.6043L2.53324 14.999C2.45286 14.8412 2.39595 14.63 2.36526 14.2544C2.33393 13.8709 2.33341 13.3777 2.33341 12.6667H1.00008ZM3.33443 15.8002C2.98947 15.6244 2.709 15.3439 2.53324 14.999L1.34523 15.6043C1.64883 16.2001 2.13327 16.6846 2.72911 16.9882L3.33443 15.8002ZM17.6667 12.6667C17.6667 13.3777 17.6662 13.8709 17.6349 14.2544C17.6042 14.63 17.5473 14.8412 17.4669 14.999L18.6549 15.6043C18.847 15.2273 18.9264 14.8211 18.9638 14.3629C19.0006 13.9126 19.0001 13.3557 19.0001 12.6667H17.6667ZM14.3334 17.3333C15.0225 17.3333 15.5794 17.3338 16.0297 17.2971C16.4878 17.2596 16.894 17.1803 17.2711 16.9882L16.6657 15.8002C16.508 15.8805 16.2968 15.9375 15.9211 15.9681C15.5377 15.9995 15.0445 16 14.3334 16V17.3333ZM17.4669 14.999C17.2912 15.3439 17.0107 15.6244 16.6657 15.8002L17.2711 16.9882C17.8669 16.6846 18.3513 16.2001 18.6549 15.6043L17.4669 14.999ZM14.3334 3.99999C15.0445 3.99999 15.5377 4.00051 15.9211 4.03184C16.2968 4.06253 16.508 4.11944 16.6657 4.19982L17.2711 3.01181C16.894 2.8197 16.4878 2.74036 16.0297 2.70294C15.5794 2.66614 15.0225 2.66666 14.3334 2.66666V3.99999ZM19.0001 7.33333C19.0001 6.64426 19.0006 6.08737 18.9638 5.63705C18.9264 5.17894 18.847 4.77273 18.6549 4.39569L17.4669 5.00101C17.5473 5.15876 17.6042 5.36997 17.6349 5.74562C17.6662 6.12906 17.6667 6.62226 17.6667 7.33333H19.0001ZM16.6657 4.19982C17.0107 4.37558 17.2912 4.65605 17.4669 5.00101L18.6549 4.39569C18.3513 3.79984 17.8669 3.31541 17.2711 3.01181L16.6657 4.19982ZM5.66675 2.66666C4.97768 2.66666 4.42079 2.66614 3.97047 2.70294C3.51236 2.74036 3.10615 2.8197 2.72911 3.01181L3.33443 4.19982C3.49218 4.11944 3.70339 4.06253 4.07904 4.03184C4.46248 4.00051 4.95568 3.99999 5.66675 3.99999V2.66666ZM2.33341 7.33333C2.33341 6.62226 2.33393 6.12906 2.36526 5.74562C2.39595 5.36997 2.45286 5.15876 2.53324 5.00101L1.34523 4.39569C1.15312 4.77273 1.07378 5.17894 1.03636 5.63705C0.999563 6.08737 1.00008 6.64426 1.00008 7.33333H2.33341ZM2.72911 3.01181C2.13326 3.31541 1.64883 3.79985 1.34523 4.39569L2.53324 5.00101C2.709 4.65605 2.98947 4.37558 3.33443 4.19982L2.72911 3.01181Z" fill="#667085"/>
</svg>
