<svg width="20" height="20" viewBox="0 0 20 20" fill="none" xmlns="http://www.w3.org/2000/svg">
<path d="M6.98356 7.37769L6.38258 7.66623L6.38258 7.66623L6.98356 7.37769ZM12.6971 13.0912L12.9856 12.4902L12.9856 12.4902L12.6971 13.0912ZM2.6427 6.46776L3.28403 6.28573L2.6427 6.46776ZM13.607 17.4321L13.789 16.7907L13.607 17.4321ZM16.9819 13.0423L16.5105 13.5137L16.5105 13.5137L16.9819 13.0423ZM16.8196 12.8799L17.291 12.4085L17.291 12.4085L16.8196 12.8799ZM16.2361 12.3477L16.5995 11.7888L16.5995 11.7888L16.2361 12.3477ZM14.4191 12.3477L14.7825 12.9066L14.7825 12.9066L14.4191 12.3477ZM17.7665 15.4489L17.1716 15.148L17.7665 15.4489ZM17.7665 13.9444L17.1716 14.2453L17.1716 14.2453L17.7665 13.9444ZM7.72706 3.83869L8.28598 3.4753L8.28598 3.47529L7.72706 3.83869ZM7.72706 5.65566L7.16814 5.29226L7.16814 5.29227L7.72706 5.65566ZM4.62581 2.30822L4.32492 1.71332L4.32492 1.71332L4.62581 2.30822ZM6.1303 2.30822L5.82941 2.90312L6.1303 2.30822ZM14.6567 17.6333L14.6587 16.9667L14.6567 17.6333ZM15.8885 17.313L15.562 16.7318L15.8885 17.313ZM2.44141 5.41808L3.10808 5.41609V5.41609L2.44141 5.41808ZM2.76176 4.18623L2.18053 3.85972L2.18052 3.85972L2.76176 4.18623ZM12.9187 13.1852L13.1052 12.5452L13.1052 12.5452L12.9187 13.1852ZM13.637 13.0627L14.0252 13.6047L14.0252 13.6047L13.637 13.0627ZM6.88957 7.15608L6.24954 7.34265L6.24954 7.34265L6.88957 7.15608ZM7.01206 6.43771L6.47002 6.04959L6.47002 6.04959L7.01206 6.43771ZM9.82694 10.2478C8.87955 9.30043 8.13243 8.23026 7.58455 7.08914L6.38258 7.66623C6.99469 8.94114 7.82888 10.1354 8.88413 11.1906L9.82694 10.2478ZM12.9856 12.4902C11.8445 11.9423 10.7743 11.1952 9.82694 10.2478L8.88413 11.1906C9.93938 12.2459 11.1336 13.0801 12.4085 13.6922L12.9856 12.4902ZM7.17529 12.8995C5.26774 10.9919 3.97126 8.707 3.28403 6.28573L2.00136 6.64979C2.74908 9.28417 4.16006 11.7699 6.23248 13.8423L7.17529 12.8995ZM13.789 16.7907C11.3677 16.1035 9.08283 14.807 7.17529 12.8995L6.23248 13.8423C8.3049 15.9147 10.7906 17.3257 13.425 18.0734L13.789 16.7907ZM4.06374 3.69558L4.1951 3.56421L3.25229 2.6214L3.12093 2.75277L4.06374 3.69558ZM6.56102 3.56421L6.72341 3.7266L7.66622 2.78379L7.50383 2.6214L6.56102 3.56421ZM17.322 16.9538L17.4533 16.8225L16.5105 15.8797L16.3792 16.011L17.322 16.9538ZM17.4534 12.5709L17.291 12.4085L16.3481 13.3513L16.5105 13.5137L17.4534 12.5709ZM17.291 12.4085C17.0237 12.1413 16.8193 11.9317 16.5995 11.7888L15.8727 12.9066C15.9458 12.9542 16.0327 13.0359 16.3482 13.3513L17.291 12.4085ZM14.307 13.3513C14.6224 13.0359 14.7094 12.9542 14.7825 12.9066L14.0557 11.7888C13.8359 11.9317 13.6315 12.1413 13.3642 12.4085L14.307 13.3513ZM16.5995 11.7888C15.8261 11.2859 14.8291 11.2859 14.0557 11.7888L14.7825 12.9066C15.1139 12.6911 15.5412 12.6911 15.8727 12.9066L16.5995 11.7888ZM17.4533 16.8225C17.8592 16.4166 18.1809 16.1068 18.3614 15.7498L17.1716 15.148C17.1116 15.2668 16.9905 15.3997 16.5105 15.8797L17.4533 16.8225ZM16.5105 13.5137C16.9905 13.9937 17.1116 14.1266 17.1716 14.2453L18.3614 13.6436C18.1809 13.2866 17.8592 12.9767 17.4533 12.5709L16.5105 13.5137ZM18.3614 15.7498C18.6963 15.0877 18.6963 14.3057 18.3614 13.6436L17.1716 14.2453C17.3152 14.5291 17.3152 14.8643 17.1716 15.148L18.3614 15.7498ZM6.72341 3.7266C7.03882 4.04201 7.1206 4.12896 7.16814 4.20208L8.28598 3.47529C8.14304 3.25545 7.93349 3.05107 7.66622 2.78379L6.72341 3.7266ZM7.66622 6.71055C7.93349 6.44328 8.14304 6.23889 8.28598 6.01905L7.16814 5.29227C7.1206 5.36538 7.03882 5.45233 6.72341 5.76774L7.66622 6.71055ZM7.16814 4.20208C7.38364 4.53353 7.38364 4.96082 7.16814 5.29226L8.28598 6.01905C8.78881 5.24568 8.78881 4.24867 8.28598 3.4753L7.16814 4.20208ZM4.1951 3.56421C4.67502 3.08429 4.808 2.96316 4.92671 2.90312L4.32492 1.71332C3.96799 1.89385 3.6581 2.21559 3.25229 2.6214L4.1951 3.56421ZM7.50383 2.6214C7.09801 2.21559 6.78812 1.89385 6.4312 1.71332L5.82941 2.90312C5.94812 2.96316 6.0811 3.08429 6.56102 3.56421L7.50383 2.6214ZM4.92671 2.90312C5.21049 2.75958 5.54563 2.75958 5.82941 2.90312L6.4312 1.71332C5.76905 1.3784 4.98707 1.3784 4.32492 1.71332L4.92671 2.90312ZM13.425 18.0734C13.8835 18.2035 14.2047 18.2987 14.6547 18.3L14.6587 16.9667C14.4204 16.966 14.2713 16.9276 13.789 16.7907L13.425 18.0734ZM16.3792 16.011C15.9174 16.4728 15.7653 16.6176 15.562 16.7318L16.215 17.8942C16.6118 17.6713 16.901 17.3748 17.322 16.9538L16.3792 16.011ZM14.6547 18.3C15.1516 18.3015 15.7818 18.1376 16.215 17.8942L15.562 16.7318C15.3294 16.8624 14.9255 16.9675 14.6587 16.9667L14.6547 18.3ZM3.28403 6.28573C3.14716 5.80348 3.10879 5.65439 3.10808 5.41609L1.77475 5.42006C1.77609 5.87001 1.87123 6.19128 2.00136 6.64979L3.28403 6.28573ZM3.12093 2.75277C2.69997 3.17372 2.40342 3.46293 2.18053 3.85972L3.343 4.51274C3.45718 4.30947 3.60199 4.15732 4.06374 3.69558L3.12093 2.75277ZM3.10808 5.41609C3.10728 5.14927 3.21232 4.74536 3.343 4.51273L2.18052 3.85972C1.93717 4.29293 1.77327 4.92317 1.77475 5.42006L3.10808 5.41609ZM12.4085 13.6922C12.4998 13.736 12.6036 13.7878 12.7321 13.8252L13.1052 12.5452C13.1049 12.5451 13.1024 12.5446 13.088 12.5383C13.0678 12.5295 13.0415 12.517 12.9856 12.4902L12.4085 13.6922ZM13.3642 12.4085C13.3137 12.4591 13.2868 12.4858 13.266 12.5053C13.2486 12.5216 13.2458 12.5229 13.2489 12.5207L14.0252 13.6047C14.1354 13.5258 14.2259 13.4325 14.307 13.3513L13.3642 12.4085ZM12.7321 13.8252C13.1622 13.9506 13.6609 13.8655 14.0252 13.6047L13.2489 12.5207C13.2174 12.5432 13.1424 12.556 13.1052 12.5452L12.7321 13.8252ZM7.58455 7.08914C7.55771 7.03325 7.54521 7.00696 7.53642 6.98675C7.53018 6.9724 7.52968 6.96981 7.52959 6.96951L6.24954 7.34265C6.287 7.47117 6.33873 7.57492 6.38258 7.66623L7.58455 7.08914ZM6.72341 5.76774C6.6423 5.84885 6.54893 5.93939 6.47002 6.04959L7.55409 6.82584C7.55184 6.82899 7.5532 6.82614 7.56944 6.80879C7.58897 6.78791 7.61568 6.76109 7.66622 6.71055L6.72341 5.76774ZM7.52959 6.96951C7.51876 6.93234 7.53155 6.85732 7.55409 6.82584L6.47002 6.04959C6.20921 6.41382 6.12417 6.91257 6.24954 7.34265L7.52959 6.96951Z" fill="#667085"/>
</svg>
