<svg width="22" height="22" viewBox="0 0 22 22" fill="none" xmlns="http://www.w3.org/2000/svg">
<path d="M1.54601 12.891L2 12L1.54601 12.891ZM1.10899 12.454L2 12L1.10899 12.454ZM4.89101 12.454L4 12L4.89101 12.454ZM4.45399 12.891L4 12L4.45399 12.891ZM4.45399 9.10899L4 10L4.45399 9.10899ZM4.89101 9.54601L4 10L4.89101 9.54601ZM1.54601 9.10899L2 10L1.54601 9.10899ZM1.10899 9.54601L2 10L1.10899 9.54601ZM17.546 12.891L18 12L17.546 12.891ZM17.109 12.454L18 12L17.109 12.454ZM20.891 12.454L20 12L20.891 12.454ZM20.454 12.891L20 12L20.454 12.891ZM20.454 9.10899L20 10L20.454 9.10899ZM20.891 9.54601L20 10L20.891 9.54601ZM17.546 9.10899L18 10L17.546 9.10899ZM17.109 9.54601L18 10L17.109 9.54601ZM9.54601 4.89101L10 4L9.54601 4.89101ZM9.10899 4.45399L10 4L9.10899 4.45399ZM12.891 4.45399L12 4L12.891 4.45399ZM12.454 4.89101L12 4L12.454 4.89101ZM12.454 1.10899L12 2L12.454 1.10899ZM12.891 1.54601L12 2L12.891 1.54601ZM9.54601 1.10899L10 2L9.54601 1.10899ZM9.10899 1.54601L10 2L9.10899 1.54601ZM9.54601 20.891L10 20L9.54601 20.891ZM9.10899 20.454L10 20L9.10899 20.454ZM12.891 20.454L12 20L12.891 20.454ZM12.454 20.891L12 20L12.454 20.891ZM12.454 17.109L12 18L12.454 17.109ZM12.891 17.546L12 18L12.891 17.546ZM9.54601 17.109L10 18L9.54601 17.109ZM9.10899 17.546L10 18L9.10899 17.546ZM8.76533 20.2354C9.30222 20.3649 9.84243 20.0347 9.97192 19.4978C10.1014 18.9609 9.77116 18.4207 9.23427 18.2912L8.76533 20.2354ZM3.70875 12.7655C3.57927 12.2286 3.03907 11.8983 2.50218 12.0278C1.96528 12.1573 1.63501 12.6975 1.76449 13.2344L3.70875 12.7655ZM20.2357 13.2345C20.3652 12.6976 20.0349 12.1574 19.498 12.0279C18.9611 11.8984 18.4209 12.2287 18.2914 12.7655L20.2357 13.2345ZM12.7659 18.2911C12.229 18.4206 11.8988 18.9608 12.0283 19.4977C12.1578 20.0346 12.698 20.3649 13.2349 20.2354L12.7659 18.2911ZM13.2346 1.76444C12.6978 1.63496 12.1576 1.96523 12.0281 2.50213C11.8986 3.03902 12.2289 3.57922 12.7658 3.7087L13.2346 1.76444ZM18.2914 9.23434C18.4209 9.77123 18.9611 10.1015 19.498 9.97202C20.0349 9.84253 20.3652 9.30233 20.2357 8.76544L18.2914 9.23434ZM1.76469 8.76556C1.63521 9.30245 1.96548 9.84265 2.50238 9.97213C3.03927 10.1016 3.57947 9.77133 3.70895 9.23444L1.76469 8.76556ZM9.23465 3.7087C9.77154 3.57922 10.1018 3.03902 9.97233 2.50213C9.84285 1.96523 9.30265 1.63496 8.76575 1.76444L9.23465 3.7087ZM2.6 10H3.4V8H2.6V10ZM4 10.6V11.4H6V10.6H4ZM3.4 12H2.6V14H3.4V12ZM2 11.4V10.6H0V11.4H2ZM2.6 12C2.30347 12 2.14122 11.9992 2.02463 11.9897C1.91972 11.9811 1.94249 11.9707 2 12L1.09202 13.782C1.36344 13.9203 1.63318 13.9644 1.86177 13.9831C2.07869 14.0008 2.33647 14 2.6 14V12ZM0 11.4C0 11.6635 -0.000777721 11.9213 0.0169452 12.1382C0.035622 12.3668 0.0796895 12.6366 0.217987 12.908L2 12C2.0293 12.0575 2.01887 12.0803 2.0103 11.9754C2.00078 11.8588 2 11.6965 2 11.4H0ZM2 12L0.217987 12.908C0.409734 13.2843 0.715696 13.5903 1.09202 13.782L2 12ZM4 11.4C4 11.6965 3.99922 11.8588 3.9897 11.9754C3.98113 12.0803 3.9707 12.0575 4 12L5.78201 12.908C5.92031 12.6366 5.96438 12.3668 5.98305 12.1382C6.00078 11.9213 6 11.6635 6 11.4H4ZM3.4 14C3.66353 14 3.92131 14.0008 4.13823 13.9831C4.36682 13.9644 4.63656 13.9203 4.90798 13.782L4 12C4.05751 11.9707 4.08028 11.9811 3.97537 11.9897C3.85878 11.9992 3.69653 12 3.4 12V14ZM4 12L4.90798 13.782C5.2843 13.5903 5.59027 13.2843 5.78201 12.908L4 12ZM3.4 10C3.69653 10 3.85878 10.0008 3.97537 10.0103C4.08028 10.0189 4.05751 10.0293 4 10L4.90798 8.21799C4.63656 8.07969 4.36682 8.03562 4.13823 8.01695C3.92131 7.99922 3.66353 8 3.4 8V10ZM6 10.6C6 10.3365 6.00078 10.0787 5.98305 9.86177C5.96438 9.63318 5.92031 9.36344 5.78201 9.09202L4 10C3.9707 9.94249 3.98113 9.91972 3.9897 10.0246C3.99922 10.1412 4 10.3035 4 10.6H6ZM4 10L5.78201 9.09202C5.59027 8.71569 5.2843 8.40973 4.90798 8.21799L4 10ZM2.6 8C2.33647 8 2.07869 7.99922 1.86177 8.01695C1.63318 8.03562 1.36344 8.07969 1.09202 8.21799L2 10C1.94249 10.0293 1.91972 10.0189 2.02463 10.0103C2.14122 10.0008 2.30347 10 2.6 10V8ZM2 10.6C2 10.3035 2.00078 10.1412 2.0103 10.0246C2.01887 9.91972 2.0293 9.94249 2 10L0.217987 9.09202C0.0796895 9.36344 0.035622 9.63318 0.0169452 9.86177C-0.000777721 10.0787 0 10.3365 0 10.6H2ZM1.09202 8.21799C0.715696 8.40973 0.409734 8.71569 0.217987 9.09202L2 10L1.09202 8.21799ZM18.6 10H19.4V8H18.6V10ZM20 10.6V11.4H22V10.6H20ZM19.4 12H18.6V14H19.4V12ZM18 11.4V10.6H16V11.4H18ZM18.6 12C18.3035 12 18.1412 11.9992 18.0246 11.9897C17.9197 11.9811 17.9425 11.9707 18 12L17.092 13.782C17.3634 13.9203 17.6332 13.9644 17.8618 13.9831C18.0787 14.0008 18.3365 14 18.6 14V12ZM16 11.4C16 11.6635 15.9992 11.9213 16.0169 12.1382C16.0356 12.3668 16.0797 12.6366 16.218 12.908L18 12C18.0293 12.0575 18.0189 12.0803 18.0103 11.9754C18.0008 11.8588 18 11.6965 18 11.4H16ZM18 12L16.218 12.908C16.4097 13.2843 16.7157 13.5903 17.092 13.782L18 12ZM20 11.4C20 11.6965 19.9992 11.8588 19.9897 11.9754C19.9811 12.0803 19.9707 12.0575 20 12L21.782 12.908C21.9203 12.6366 21.9644 12.3668 21.9831 12.1382C22.0008 11.9213 22 11.6635 22 11.4H20ZM19.4 14C19.6635 14 19.9213 14.0008 20.1382 13.9831C20.3668 13.9644 20.6366 13.9203 20.908 13.782L20 12C20.0575 11.9707 20.0803 11.9811 19.9754 11.9897C19.8588 11.9992 19.6965 12 19.4 12V14ZM20 12L20.908 13.782C21.2843 13.5903 21.5903 13.2843 21.782 12.908L20 12ZM19.4 10C19.6965 10 19.8588 10.0008 19.9754 10.0103C20.0803 10.0189 20.0575 10.0293 20 10L20.908 8.21799C20.6366 8.07969 20.3668 8.03562 20.1382 8.01695C19.9213 7.99922 19.6635 8 19.4 8V10ZM22 10.6C22 10.3365 22.0008 10.0787 21.9831 9.86177C21.9644 9.63318 21.9203 9.36344 21.782 9.09202L20 10C19.9707 9.94249 19.9811 9.91972 19.9897 10.0246C19.9992 10.1412 20 10.3035 20 10.6H22ZM20 10L21.782 9.09202C21.5903 8.71569 21.2843 8.40973 20.908 8.21799L20 10ZM18.6 8C18.3365 8 18.0787 7.99922 17.8618 8.01695C17.6332 8.03562 17.3634 8.07969 17.092 8.21799L18 10C17.9425 10.0293 17.9197 10.0189 18.0246 10.0103C18.1412 10.0008 18.3035 10 18.6 10V8ZM18 10.6C18 10.3035 18.0008 10.1412 18.0103 10.0246C18.0189 9.91972 18.0293 9.94249 18 10L16.218 9.09202C16.0797 9.36344 16.0356 9.63318 16.0169 9.86177C15.9992 10.0787 16 10.3365 16 10.6H18ZM17.092 8.21799C16.7157 8.40973 16.4097 8.71569 16.218 9.09202L18 10L17.092 8.21799ZM10.6 2H11.4V0H10.6V2ZM12 2.6V3.4H14V2.6H12ZM11.4 4H10.6V6H11.4V4ZM10 3.4V2.6H8V3.4H10ZM10.6 4C10.3035 4 10.1412 3.99922 10.0246 3.9897C9.91972 3.98113 9.94249 3.9707 10 4L9.09202 5.78201C9.36344 5.92031 9.63318 5.96438 9.86177 5.98305C10.0787 6.00078 10.3365 6 10.6 6V4ZM8 3.4C8 3.66353 7.99922 3.92131 8.01695 4.13823C8.03562 4.36682 8.07969 4.63656 8.21799 4.90798L10 4C10.0293 4.05751 10.0189 4.08028 10.0103 3.97537C10.0008 3.85878 10 3.69653 10 3.4H8ZM10 4L8.21799 4.90798C8.40973 5.2843 8.71569 5.59027 9.09202 5.78201L10 4ZM12 3.4C12 3.69653 11.9992 3.85878 11.9897 3.97537C11.9811 4.08028 11.9707 4.05751 12 4L13.782 4.90798C13.9203 4.63656 13.9644 4.36682 13.9831 4.13823C14.0008 3.92131 14 3.66353 14 3.4H12ZM11.4 6C11.6635 6 11.9213 6.00078 12.1382 5.98305C12.3668 5.96438 12.6366 5.92031 12.908 5.78201L12 4C12.0575 3.9707 12.0803 3.98113 11.9754 3.9897C11.8588 3.99922 11.6965 4 11.4 4V6ZM12 4L12.908 5.78201C13.2843 5.59027 13.5903 5.2843 13.782 4.90798L12 4ZM11.4 2C11.6965 2 11.8588 2.00078 11.9754 2.0103C12.0803 2.01887 12.0575 2.0293 12 2L12.908 0.217987C12.6366 0.0796895 12.3668 0.035622 12.1382 0.0169452C11.9213 -0.000777721 11.6635 0 11.4 0V2ZM14 2.6C14 2.33647 14.0008 2.07869 13.9831 1.86177C13.9644 1.63318 13.9203 1.36344 13.782 1.09202L12 2C11.9707 1.94249 11.9811 1.91972 11.9897 2.02463C11.9992 2.14122 12 2.30347 12 2.6H14ZM12 2L13.782 1.09202C13.5903 0.715696 13.2843 0.409734 12.908 0.217987L12 2ZM10.6 0C10.3365 0 10.0787 -0.000777721 9.86177 0.0169452C9.63318 0.035622 9.36344 0.0796895 9.09202 0.217987L10 2C9.94249 2.0293 9.91972 2.01887 10.0246 2.0103C10.1412 2.00078 10.3035 2 10.6 2V0ZM10 2.6C10 2.30347 10.0008 2.14122 10.0103 2.02463C10.0189 1.91972 10.0293 1.94249 10 2L8.21799 1.09202C8.07969 1.36344 8.03562 1.63318 8.01695 1.86177C7.99922 2.07869 8 2.33647 8 2.6H10ZM9.09202 0.217987C8.71569 0.409734 8.40973 0.715696 8.21799 1.09202L10 2L9.09202 0.217987ZM10.6 18H11.4V16H10.6V18ZM12 18.6V19.4H14V18.6H12ZM11.4 20H10.6V22H11.4V20ZM10 19.4V18.6H8V19.4H10ZM10.6 20C10.3035 20 10.1412 19.9992 10.0246 19.9897C9.91972 19.9811 9.94249 19.9707 10 20L9.09202 21.782C9.36344 21.9203 9.63318 21.9644 9.86177 21.9831C10.0787 22.0008 10.3365 22 10.6 22V20ZM8 19.4C8 19.6635 7.99922 19.9213 8.01695 20.1382C8.03562 20.3668 8.07969 20.6366 8.21799 20.908L10 20C10.0293 20.0575 10.0189 20.0803 10.0103 19.9754C10.0008 19.8588 10 19.6965 10 19.4H8ZM10 20L8.21799 20.908C8.40973 21.2843 8.71569 21.5903 9.09202 21.782L10 20ZM12 19.4C12 19.6965 11.9992 19.8588 11.9897 19.9754C11.9811 20.0803 11.9707 20.0575 12 20L13.782 20.908C13.9203 20.6366 13.9644 20.3668 13.9831 20.1382C14.0008 19.9213 14 19.6635 14 19.4H12ZM11.4 22C11.6635 22 11.9213 22.0008 12.1382 21.9831C12.3668 21.9644 12.6366 21.9203 12.908 21.782L12 20C12.0575 19.9707 12.0803 19.9811 11.9754 19.9897C11.8588 19.9992 11.6965 20 11.4 20V22ZM12 20L12.908 21.782C13.2843 21.5903 13.5903 21.2843 13.782 20.908L12 20ZM11.4 18C11.6965 18 11.8588 18.0008 11.9754 18.0103C12.0803 18.0189 12.0575 18.0293 12 18L12.908 16.218C12.6366 16.0797 12.3668 16.0356 12.1382 16.0169C11.9213 15.9992 11.6635 16 11.4 16V18ZM14 18.6C14 18.3365 14.0008 18.0787 13.9831 17.8618C13.9644 17.6332 13.9203 17.3634 13.782 17.092L12 18C11.9707 17.9425 11.9811 17.9197 11.9897 18.0246C11.9992 18.1412 12 18.3035 12 18.6H14ZM12 18L13.782 17.092C13.5903 16.7157 13.2843 16.4097 12.908 16.218L12 18ZM10.6 16C10.3365 16 10.0787 15.9992 9.86177 16.0169C9.63318 16.0356 9.36344 16.0797 9.09202 16.218L10 18C9.94249 18.0293 9.91972 18.0189 10.0246 18.0103C10.1412 18.0008 10.3035 18 10.6 18V16ZM10 18.6C10 18.3035 10.0008 18.1412 10.0103 18.0246C10.0189 17.9197 10.0293 17.9425 10 18L8.21799 17.092C8.07969 17.3634 8.03562 17.6332 8.01695 17.8618C7.99922 18.0787 8 18.3365 8 18.6H10ZM9.09202 16.218C8.71569 16.4097 8.40973 16.7157 8.21799 17.092L10 18L9.09202 16.218ZM9.23427 18.2912C6.51119 17.6344 4.36545 15.4886 3.70875 12.7655L1.76449 13.2344C2.59716 16.6872 5.31259 19.4027 8.76533 20.2354L9.23427 18.2912ZM18.2914 12.7655C17.6347 15.4886 15.489 17.6344 12.7659 18.2911L13.2349 20.2354C16.6876 19.4026 19.403 16.6872 20.2357 13.2345L18.2914 12.7655ZM12.7658 3.7087C15.4889 4.36543 17.6347 6.51122 18.2914 9.23434L20.2357 8.76544C19.403 5.31264 16.6874 2.59715 13.2346 1.76444L12.7658 3.7087ZM3.70895 9.23444C4.36567 6.51127 6.51148 4.36544 9.23465 3.7087L8.76575 1.76444C5.31291 2.59716 2.59738 5.31271 1.76469 8.76556L3.70895 9.23444Z" fill="#D0D5DD"/>
</svg>
