<svg width="10" height="8" viewBox="0 0 10 8" fill="none" xmlns="http://www.w3.org/2000/svg">
<path d="M9.53033 1.53033C9.82322 1.23744 9.82322 0.762563 9.53033 0.46967C9.23744 0.176777 8.76256 0.176777 8.46967 0.46967L9.53033 1.53033ZM3.5 6.5L2.96967 7.03033C3.26256 7.32322 3.73744 7.32322 4.03033 7.03033L3.5 6.5ZM1.53033 3.46967C1.23744 3.17678 0.762563 3.17678 0.46967 3.46967C0.176777 3.76256 0.176777 4.23744 0.46967 4.53033L1.53033 3.46967ZM8.46967 0.46967L2.96967 5.96967L4.03033 7.03033L9.53033 1.53033L8.46967 0.46967ZM4.03033 5.96967L1.53033 3.46967L0.46967 4.53033L2.96967 7.03033L4.03033 5.96967Z" fill="#0BA5EC"/>
</svg>
